<?xml version="1.0" encoding="utf-8"?>
<!-- Generator: Adobe Illustrator 22.0.1, SVG Export Plug-In . SVG Version: 6.00 Build 0)  -->
<svg version="1.1" id="Layer_1" xmlns="http://www.w3.org/2000/svg" xmlns:xlink="http://www.w3.org/1999/xlink" x="0px" y="0px"
	 viewBox="0 0 1544 500" style="enable-background:new 0 0 1544 500;" xml:space="preserve">
<style type="text/css">
	.st0{fill:url(#SVGID_1_);}
	.st1{fill:#FFFFFF;}
	.st2{fill:#FF0000;}
	.st3{filter:url(#Adobe_OpacityMaskFilter);}
	.st4{mask:url(#SVGID_2_);}
	.st5{fill:#005DAB;}
	.st6{fill:#1392E8;}
	.st7{font-family:'MyriadPro-Regular';}
	.st8{font-size:49.5047px;}
	.st9{font-family:'MyriadPro-Bold';}
	.st10{fill:#FFCE09;}
</style>
<linearGradient id="SVGID_1_" gradientUnits="userSpaceOnUse" x1="242.7619" y1="587.8366" x2="743.7369" y2="587.8366" gradientTransform="matrix(4.489659e-11 1 1 -4.489659e-11 184.1589 -244.1589)">
	<stop  offset="0" style="stop-color:#0087C1"/>
	<stop  offset="1" style="stop-color:#3FB7E5"/>
</linearGradient>
<rect x="0.3" y="-1.4" class="st0" width="1543.4" height="501"/>
<path class="st1" d="M106,102.3c0-39.7,32.1-71.8,71.8-71.8s71.8,32.1,71.8,71.8V131c0,39.7-32.1,71.8-71.8,71.8S106,170.7,106,131
	V102.3z M34.2,270c43.6-25.3,93.2-38.6,143.6-38.5c52.3,0,101.4,13.9,143.6,38.5v47.7H34.2V270z"/>
<path class="st2" d="M153.5,229.5c0-46.6,37.8-84.4,84.4-84.4s84.4,37.8,84.4,84.4s-37.8,84.4-84.4,84.4S153.5,276.1,153.5,229.5z
	 M291.2,188.2l-94.8,94.6c29.4,22.9,71.9,17.6,94.7-11.9C310.1,246.5,310.1,212.5,291.2,188.2L291.2,188.2z M279.3,176.2
	c-29.4-23-71.8-17.8-94.8,11.6c-19.1,24.4-19.1,58.7,0,83.2C184.6,271,279.3,176.2,279.3,176.2z"/>
<defs>
	<filter id="Adobe_OpacityMaskFilter" filterUnits="userSpaceOnUse" x="1409.2" y="362.6" width="126.7" height="116.9">
		
			<feColorMatrix  type="matrix" values="-1 0 0 0 1  0 -1 0 0 1  0 0 -1 0 1  0 0 0 1 0" color-interpolation-filters="sRGB" result="source"/>
		<feFlood  style="flood-color:white;flood-opacity:1" result="back"/>
		<feBlend  in="source" in2="back" mode="normal"/>
	</filter>
</defs>
<mask maskUnits="userSpaceOnUse" x="1409.2" y="362.6" width="126.7" height="116.9" id="SVGID_2_">
	<g class="st3">
		<g>
			<g>
				<path class="st1" d="M1469.9,377.4c-0.5,0-0.9,0-1.2,0c-7.7-0.1-18.2-1.5-31.5-6.3l6.6-3.5c5.6,2,14.3,4.2,25,4.3
					c10.5,0.1,19-1.9,24.6-3.8l4.2,2.3C1490.9,373.9,1481.7,377.3,1469.9,377.4z"/>
				<path class="st1" d="M1469.7,377.5c-0.5,0-0.8,0-1.1,0c-9.9-0.2-20.5-2.3-31.5-6.3l-0.3-0.1l7-3.7l0.1,0
					c8,2.8,16.4,4.2,24.9,4.3c8.3,0.1,16.6-1.2,24.6-3.7l0.1,0l4.5,2.5l-0.2,0.1c-8.6,4.7-18,7-27.7,7l0,0
					C1469.8,377.5,1469.8,377.5,1469.7,377.5z M1437.6,371c10.9,4,21.4,6.1,31.1,6.2c0.3,0,0.7,0,1.2,0l0,0c9.6,0,18.8-2.3,27.4-6.9
					l-3.9-2.1c-8,2.6-16.2,3.8-24.6,3.7c-8.5-0.1-16.9-1.5-24.9-4.3L1437.6,371z"/>
			</g>
		</g>
		<g>
			<path class="st1" d="M1467.4,396.6c-0.4,0-0.8,0-1.2,0c-23.2-0.4-36.3-6.5-44.3-12.7l4.2-4.3c0.8,0.6,13,10.7,40.3,11.2
				c24.3,0.5,40.5-9.5,42.8-11.1l3.7,3.8C1510.3,385.2,1492.8,396.6,1467.4,396.6z"/>
		</g>
	</g>
</mask>
<g class="st4">
	<g>
		<circle class="st5" cx="1467.6" cy="421" r="58.5"/>
	</g>
	<g>
		<polyline class="st1" points="1446.9,405.6 1446.9,428.6 1488.6,428.6 1487.7,405.6 		"/>
	</g>
	<g>
		<polyline class="st1" points="1480,374.9 1488.8,407.6 1512.4,402.1 1501.7,384.8 1490.3,376.7 		"/>
	</g>
	<g>
		<polyline class="st1" points="1416.8,423.6 1423.4,446.4 1446.9,450.6 1445.1,428.6 		"/>
	</g>
	<g>
		<polyline class="st1" points="1451.3,452.4 1456.7,471.9 1480,469.1 1483.8,452.9 		"/>
	</g>
	<g>
		<polygon class="st6" points="1423.5,399.1 1418.1,410.2 1416.8,423.6 1435.5,426.4 1443.2,425.8 1445.1,404.8 		"/>
	</g>
	<g>
		<polygon class="st6" points="1453.6,372.7 1450,389.2 1446.9,403.3 1466.9,408.3 1487.7,405.6 1479.1,372.7 		"/>
	</g>
	<g>
		<polygon class="st6" points="1490.5,428.6 1487.7,438.4 1482.2,468.1 1499,460.5 1511.4,448.8 1515.9,424.9 		"/>
	</g>
	<g>
		<g>
			<path d="M1467.2,474.7c-29.3,0-53.2-23.8-53.2-53.2s23.8-53.2,53.2-53.2c29.3,0,53.2,23.8,53.2,53.2S1496.5,474.7,1467.2,474.7z
				 M1467.2,373.9c-26.2,0-47.6,21.3-47.6,47.6c0,26.2,21.3,47.6,47.6,47.6c26.2,0,47.6-21.3,47.6-47.6
				C1514.8,395.3,1493.4,373.9,1467.2,373.9z"/>
		</g>
		<g>
			<path d="M1473.3,411.2c-2.2,0-4.3,0-6.5-0.1c-15.1-0.6-30-3.5-44.1-8.5l1.9-5.3c13.7,4.8,28,7.6,42.5,8.2c14.8,0.6,29.6-1,44-4.8
				l1.4,5.4C1499.6,409.5,1486.5,411.2,1473.3,411.2z"/>
		</g>
		<g>
			<path d="M1472.7,433.3c-2.4,0-4.9-0.1-7.3-0.2c-16.9-0.7-33.6-3.9-49.5-9.5l1.8-5.3c15.4,5.4,31.5,8.5,47.9,9.2
				c16.7,0.7,33.4-1.1,49.5-5.3l1.4,5.4C1502.3,431.4,1487.5,433.3,1472.7,433.3z"/>
		</g>
		<g>
			<path d="M1471.7,455.2c-2.1,0-4.3,0-6.4-0.1c-14.8-0.5-29.4-3-43.4-7.2l1.6-5.3c13.5,4.1,27.6,6.5,41.9,7
				c14.6,0.5,29.3-0.8,43.4-4.1l1.2,5.4C1497.6,453.8,1484.7,455.2,1471.7,455.2z"/>
		</g>
		<g>
			<path d="M1452.3,471.6c-5.9-14.3-9.2-29.4-9.8-44.7c-0.8-18.9,2.4-37.4,9.6-55.2l5.2,2.1c-6.9,17-10,34.8-9.2,52.9
				c0.6,14.7,3.8,29.1,9.4,42.8L1452.3,471.6z"/>
		</g>
		<g>
			<path d="M1481.5,472.9l-5.2-2.1c5.7-13.9,8.9-28.6,9.6-43.5c0.8-18.3-2.4-36.4-9.3-53.6l5.2-2.1c7.3,18,10.5,36.8,9.7,55.9
				C1490.8,443.1,1487.4,458.4,1481.5,472.9z"/>
		</g>
	</g>
	<path class="st1" d="M1535.8,377.2"/>
</g>
<text transform="matrix(1 0 0 1 510.4339 243.3052)"><tspan x="0" y="0" class="st1 st7 st8">Easily </tspan><tspan x="124.9" y="0" class="st1 st9 st8">disable</tspan><tspan x="284.9" y="0" class="st1 st7 st8"> user accounts </tspan><tspan x="-66.4" y="59.4" class="st1 st7 st8">and prevent them from logging in.</tspan></text>
<g>
	<g>
		<path class="st10" d="M1467.4,390.8c-30,0-53.6-13.1-53.6-29.7s23.5-29.7,53.6-29.7c30,0,53.6,13.1,53.6,29.7
			S1497.4,390.8,1467.4,390.8z M1467.4,337.5c-25.7,0-47.4,10.8-47.4,23.6s21.7,23.6,47.4,23.6c25.7,0,47.4-10.8,47.4-23.6
			S1493.1,337.5,1467.4,337.5z"/>
	</g>
	<g>
		<path class="st10" d="M1467.5,384.9c-30,0-53.4-11.5-53.4-26.1s23.5-26.1,53.4-26.1s53.4,11.5,53.4,26.1
			S1497.4,384.9,1467.5,384.9z M1467.5,338.2c-28.6,0-47.9,10.6-47.9,20.5s19.2,20.5,47.9,20.5s47.9-10.6,47.9-20.5
			S1496.1,338.2,1467.5,338.2z"/>
	</g>
	<g>
		<path class="st10" d="M1467.5,381.3c-27,0-48.2-10.5-48.2-23.9c0-13.4,21.2-23.9,48.2-23.9c27,0,48.2,10.5,48.2,23.9
			C1515.7,370.8,1494.5,381.3,1467.5,381.3z M1467.5,338.8c-25.7,0-42.9,9.6-42.9,18.6c0,9,17.3,18.6,42.9,18.6s42.9-9.6,42.9-18.6
			C1510.4,348.4,1493.2,338.8,1467.5,338.8z"/>
	</g>
</g>
</svg>
