<?xml version="1.0" encoding="utf-8"?>
<!-- Generator: Adobe Illustrator 22.0.1, SVG Export Plug-In . SVG Version: 6.00 Build 0)  -->
<svg version="1.1" id="Layer_1" xmlns="http://www.w3.org/2000/svg" xmlns:xlink="http://www.w3.org/1999/xlink" x="0px" y="0px"
	 viewBox="0 0 500 500" style="enable-background:new 0 0 500 500;" xml:space="preserve">
<style type="text/css">
	.st0{fill:url(#SVGID_1_);}
	.st1{fill:#FFFFFF;}
	.st2{fill:#FF0000;}
</style>
<linearGradient id="SVGID_1_" gradientUnits="userSpaceOnUse" x1="-201" y1="510" x2="301" y2="510" gradientTransform="matrix(4.489659e-11 1 1 -4.489659e-11 -260 200)">
	<stop  offset="0" style="stop-color:#0087C1"/>
	<stop  offset="1" style="stop-color:#3FB7E5"/>
</linearGradient>
<rect x="-1" y="-1" class="st0" width="502" height="502"/>
<path class="st1" d="M155.5,157.5c0-52.2,42.3-94.5,94.5-94.5s94.5,42.3,94.5,94.5v37.8c0,52.2-42.3,94.5-94.5,94.5
	s-94.5-42.3-94.5-94.5V157.5z M61,378.3c57.4-33.3,122.6-50.7,189-50.7c68.8,0,133.4,18.3,189,50.7V441H61V378.3z"/>
<path class="st2" d="M218,324.9c0-61.3,49.7-111.1,111.1-111.1s111.1,49.7,111.1,111.1S390.4,436,329.1,436S218,386.3,218,324.9z
	 M399.3,270.5L274.5,395c38.8,30.1,94.6,23.1,124.7-15.6c24.9-32,24.9-76.9,0-109V270.5z M383.6,254.7
	c-38.7-30.2-94.5-23.4-124.7,15.3c-25.1,32.2-25.1,77.3,0,109.5C258.9,379.5,383.6,254.7,383.6,254.7z"/>
</svg>
